<?xml version="1.0" encoding="utf-8"?>
<!-- Generator: Adobe Illustrator 27.2.0, SVG Export Plug-In . SVG Version: 6.00 Build 0)  -->
<svg version="1.1" id="Capa_1" xmlns="http://www.w3.org/2000/svg" xmlns:xlink="http://www.w3.org/1999/xlink" x="0px" y="0px"
	 viewBox="0 0 397.96 231.13" style="enable-background:new 0 0 397.96 231.13;" xml:space="preserve">
<style type="text/css">
	.st0{fill:none;stroke:#5D00FF;stroke-width:2;stroke-miterlimit:10;}
	.st1{fill:none;stroke:#5D00FF;stroke-width:2;stroke-linecap:round;stroke-miterlimit:10;}
</style>
<g>
	<path class="st0" d="M387.4,229.17H129.95c-3.31,0-6-2.69-6-6V94.45c0-3.31,2.69-6,6-6H387.4c3.31,0,6,2.69,6,6v128.73
		C393.4,226.49,390.71,229.17,387.4,229.17z"/>
	<path class="st1" d="M137.98,180.4c8.91-17.33,29.16-28.18,48.61-26.04c15.03,1.65,28.28,10.05,41.72,16.95s28.96,12.53,43.44,8.2
		c19.67-5.87,30.04-27.6,47.96-37.59c18.74-10.45,44.87-4.98,57.78,12.1"/>
	<line class="st1" x1="245.71" y1="10.4" x2="310.23" y2="10.4"/>
	<line class="st1" x1="245.71" y1="36.42" x2="377.49" y2="36.42"/>
	<line class="st1" x1="245.71" y1="62.43" x2="377.49" y2="62.43"/>
	<path class="st1" d="M98.35,229.17H10.56c-3.31,0-6-2.69-6-6V7.96c0-3.31,2.69-6,6-6h87.79c3.31,0,6,2.69,6,6v215.22
		C104.35,226.49,101.67,229.17,98.35,229.17z"/>
	<path class="st1" d="M217.75,68.95h-87.79c-3.31,0-6-2.69-6-6v-55c0-3.31,2.69-6,6-6h87.79c3.31,0,6,2.69,6,6v55
		C223.75,66.27,221.06,68.95,217.75,68.95z"/>
</g>
</svg>
