<?xml version="1.0" encoding="utf-8"?>
<!-- Generator: Adobe Illustrator 27.2.0, SVG Export Plug-In . SVG Version: 6.00 Build 0)  -->
<svg version="1.1" id="Capa_1" xmlns="http://www.w3.org/2000/svg" xmlns:xlink="http://www.w3.org/1999/xlink" x="0px" y="0px"
	 viewBox="0 0 397.96 231.13" style="enable-background:new 0 0 397.96 231.13;" xml:space="preserve">
<style type="text/css">
	.st0{fill:none;stroke:#5D00FF;stroke-width:2;stroke-miterlimit:10;}
</style>
<g>
	
		<rect x="53.6" y="197.88" transform="matrix(0.984 0.1783 -0.1783 0.984 38.9286 -8.7151)" class="st0" width="28.71" height="28.71"/>
	
		<rect x="176.4" y="51.43" transform="matrix(0.9609 -0.2768 0.2768 0.9609 -10.7563 55.3786)" class="st0" width="28.71" height="28.71"/>
	<path class="st0" d="M18.76,129.16c-7.05,2.01-14.4-2.04-16.42-9.09c-2.01-7.05,2.04-14.4,9.09-16.42
		c7.02-2.05,14.37,2.03,16.42,9.05C29.87,119.75,25.82,127.11,18.76,129.16z"/>
	
		<rect x="361.53" y="114.06" transform="matrix(0.7583 -0.6519 0.6519 0.7583 7.1428 276.097)" class="st0" width="28.71" height="28.71"/>
	<circle class="st0" cx="365.37" cy="15.48" r="13.27"/>
	<polygon class="st0" points="200.09,108.72 200.09,205.49 228.9,180.13 269.27,180.13 	"/>
	<line class="st0" x1="204.55" y1="61.81" x2="352.62" y2="19.15"/>
	<line class="st0" x1="27.86" y1="112.71" x2="176.96" y2="69.76"/>
	<path class="st0" d="M204.48,61.59c10.74-2.13,21.84-3.24,33.2-3.24c51.53,0,97.7,22.95,128.84,59.19"/>
	<path class="st0" d="M70.51,198.11C81.06,139.03,122.17,90.54,176.9,69.55"/>
</g>
</svg>
